<svg xmlns="http://www.w3.org/2000/svg" xmlns:xlink="http://www.w3.org/1999/xlink" contentStyleType="text/css" height="762px" preserveAspectRatio="none" style="width:1308px;height:762px;background:#FFFFFF;" version="1.1" viewBox="0 0 1308 762" width="1308px" zoomAndPan="magnify"><defs/><g><!--cluster bc56eed19b34813efff73d8b5877a611--><g id="cluster_bc56eed19b34813efff73d8b5877a611"><polygon fill="none" points="16,132.6,26,122.6,746,122.6,746,377.57,736,387.57,16,387.57,16,132.6" style="stroke:#181818;stroke-width:1.0;"/><line style="stroke:#181818;stroke-width:1.0;" x1="736" x2="746" y1="132.6" y2="122.6"/><line style="stroke:#181818;stroke-width:1.0;" x1="16" x2="736" y1="132.6" y2="132.6"/><line style="stroke:#181818;stroke-width:1.0;" x1="736" x2="736" y1="132.6" y2="387.57"/><text fill="#000000" font-family="sans-serif" font-size="14" font-weight="bold" lengthAdjust="spacing" textLength="101" x="326.5" y="148.5951">Auth-service</text></g><!--cluster 904adffc441f8d1da51a13633729558c--><g id="cluster_904adffc441f8d1da51a13633729558c"><polygon fill="none" points="786,173.34,796,163.34,1032,163.34,1032,635.86,1022,645.86,786,645.86,786,173.34" style="stroke:#181818;stroke-width:1.0;"/><line style="stroke:#181818;stroke-width:1.0;" x1="1022" x2="1032" y1="173.34" y2="163.34"/><line style="stroke:#181818;stroke-width:1.0;" x1="786" x2="1022" y1="173.34" y2="173.34"/><line style="stroke:#181818;stroke-width:1.0;" x1="1022" x2="1022" y1="173.34" y2="645.86"/><text fill="#000000" font-family="sans-serif" font-size="14" font-weight="bold" lengthAdjust="spacing" textLength="114" x="848" y="189.3351">Auth-postgres</text></g><!--cluster d5f0cc340ceab8e784ce7c6d8b87071e--><g id="cluster_d5f0cc340ceab8e784ce7c6d8b87071e"><polygon fill="none" points="1072,173.34,1082,163.34,1291,163.34,1291,336.82,1281,346.82,1072,346.82,1072,173.34" style="stroke:#181818;stroke-width:1.0;"/><line style="stroke:#181818;stroke-width:1.0;" x1="1281" x2="1291" y1="173.34" y2="163.34"/><line style="stroke:#181818;stroke-width:1.0;" x1="1072" x2="1281" y1="173.34" y2="173.34"/><line style="stroke:#181818;stroke-width:1.0;" x1="1281" x2="1281" y1="173.34" y2="346.82"/><text fill="#000000" font-family="sans-serif" font-size="14" font-weight="bold" lengthAdjust="spacing" textLength="83" x="1136" y="189.3351">Auth-redis</text></g><!--entity 8795a36252ca4f575494470af03edf63--><g id="elem_8795a36252ca4f575494470af03edf63"><rect fill="#F1F1F1" height="192.9688" rx="2.5" ry="2.5" style="stroke:#181818;stroke-width:0.5;" width="663" x="39.5" y="170.6"/><rect fill="#F1F1F1" height="10" style="stroke:#181818;stroke-width:0.5;" width="15" x="682.5" y="175.6"/><rect fill="#F1F1F1" height="2" style="stroke:#181818;stroke-width:0.5;" width="4" x="680.5" y="177.6"/><rect fill="#F1F1F1" height="2" style="stroke:#181818;stroke-width:0.5;" width="4" x="680.5" y="181.6"/><text fill="#000000" font-family="sans-serif" font-size="14" font-weight="bold" lengthAdjust="spacing" textLength="99" x="54.5" y="203.5951">auth-service</text><text fill="#000000" font-family="sans-serif" font-size="14" lengthAdjust="spacing" textLength="4" x="54.5" y="219.892">&#160;</text><text fill="#000000" font-family="sans-serif" font-size="14" lengthAdjust="spacing" textLength="617" x="54.5" y="236.1889">environment: SPRING_DATASOURCE_USERNAME=${SPRING_DATASOURCE_USERNAME}</text><text fill="#000000" font-family="sans-serif" font-size="14" lengthAdjust="spacing" textLength="623" x="54.5" y="252.4857">environment: SPRING_DATASOURCE_PASSWORD=${SPRING_DATASOURCE_PASSWORD}</text><text fill="#000000" font-family="sans-serif" font-size="14" lengthAdjust="spacing" textLength="311" x="54.5" y="268.7826">environment: JWT_SECRET=${JWT_SECRET}</text><text fill="#000000" font-family="sans-serif" font-size="14" lengthAdjust="spacing" textLength="399" x="54.5" y="285.0795">environment: GATEWAY_SECRET=${GATEWAY_SECRET}</text><text fill="#000000" font-family="sans-serif" font-size="14" lengthAdjust="spacing" textLength="485" x="54.5" y="301.3764">environment: SPRING_MAIL_USERNAME=${SPRING_MAIL_USERNAME}</text><text fill="#000000" font-family="sans-serif" font-size="14" lengthAdjust="spacing" textLength="491" x="54.5" y="317.6732">environment: SPRING_MAIL_PASSWORD=${SPRING_MAIL_PASSWORD}</text><text fill="#000000" font-family="sans-serif" font-size="14" lengthAdjust="spacing" textLength="99" x="54.5" y="333.9701">restart: always</text><text fill="#000000" font-family="sans-serif" font-size="14" lengthAdjust="spacing" textLength="4" x="54.5" y="350.267">&#160;</text></g><!--entity 9d378215031ddb09298256d7b9a02846--><g id="elem_9d378215031ddb09298256d7b9a02846"><rect fill="#F1F1F1" height="111.4844" rx="2.5" ry="2.5" style="stroke:#181818;stroke-width:0.5;" width="176" x="813" y="211.34"/><rect fill="#F1F1F1" height="10" style="stroke:#181818;stroke-width:0.5;" width="15" x="969" y="216.34"/><rect fill="#F1F1F1" height="2" style="stroke:#181818;stroke-width:0.5;" width="4" x="967" y="218.34"/><rect fill="#F1F1F1" height="2" style="stroke:#181818;stroke-width:0.5;" width="4" x="967" y="222.34"/><text fill="#000000" font-family="sans-serif" font-size="14" font-weight="bold" lengthAdjust="spacing" textLength="112" x="828" y="244.3351">auth-postgres</text><text fill="#000000" font-family="sans-serif" font-size="14" lengthAdjust="spacing" textLength="4" x="828" y="260.632">&#160;</text><text fill="#000000" font-family="sans-serif" font-size="14" lengthAdjust="spacing" textLength="136" x="828" y="276.9289">image: postgres:17</text><text fill="#000000" font-family="sans-serif" font-size="14" lengthAdjust="spacing" textLength="99" x="828" y="293.2257">restart: always</text><text fill="#000000" font-family="sans-serif" font-size="14" lengthAdjust="spacing" textLength="4" x="828" y="309.5226">&#160;</text></g><!--entity 7668a94c354be9d5afdc053fdf7697a4--><g id="elem_7668a94c354be9d5afdc053fdf7697a4"><rect fill="#F1F1F1" height="39.2969" rx="2.5" ry="2.5" style="stroke:#181818;stroke-width:0.5;" width="189" x="810.5" y="582.57"/><polygon fill="#F1F1F1" points="982.5,587.57,982.5,601.57,994.5,601.57,994.5,593.57,988.5,587.57,982.5,587.57" style="stroke:#181818;stroke-width:0.5;"/><line style="stroke:#181818;stroke-width:0.5;" x1="988.5" x2="988.5" y1="587.57" y2="593.57"/><line style="stroke:#181818;stroke-width:0.5;" x1="994.5" x2="988.5" y1="593.57" y2="593.57"/><text fill="#000000" font-family="sans-serif" font-size="14" lengthAdjust="spacing" textLength="159" x="820.5" y="608.5651">/var/lib/postgresql/data</text></g><!--entity eb583b7dcff9016f06d07317c9e5fe03--><g id="elem_eb583b7dcff9016f06d07317c9e5fe03"><rect fill="#F1F1F1" height="111.4844" rx="2.5" ry="2.5" style="stroke:#181818;stroke-width:0.5;" width="152" x="1096" y="211.34"/><rect fill="#F1F1F1" height="10" style="stroke:#181818;stroke-width:0.5;" width="15" x="1228" y="216.34"/><rect fill="#F1F1F1" height="2" style="stroke:#181818;stroke-width:0.5;" width="4" x="1226" y="218.34"/><rect fill="#F1F1F1" height="2" style="stroke:#181818;stroke-width:0.5;" width="4" x="1226" y="222.34"/><text fill="#000000" font-family="sans-serif" font-size="14" font-weight="bold" lengthAdjust="spacing" textLength="81" x="1111" y="244.3351">auth-redis</text><text fill="#000000" font-family="sans-serif" font-size="14" lengthAdjust="spacing" textLength="4" x="1111" y="260.632">&#160;</text><text fill="#000000" font-family="sans-serif" font-size="14" lengthAdjust="spacing" textLength="112" x="1111" y="276.9289">image: redis:7.4</text><text fill="#000000" font-family="sans-serif" font-size="14" lengthAdjust="spacing" textLength="99" x="1111" y="293.2257">restart: always</text><text fill="#000000" font-family="sans-serif" font-size="14" lengthAdjust="spacing" textLength="4" x="1111" y="309.5226">&#160;</text></g><!--entity be9fa1c385ea8803a5ac106fe9e19ebd--><g id="elem_be9fa1c385ea8803a5ac106fe9e19ebd"><polygon fill="#F1F1F1" points="937,16,947,6,1111,6,1111,58.5938,1101,68.5938,937,68.5938,937,16" style="stroke:#181818;stroke-width:0.5;"/><line style="stroke:#181818;stroke-width:0.5;" x1="1101" x2="1111" y1="16" y2="6"/><line style="stroke:#181818;stroke-width:0.5;" x1="937" x2="1101" y1="16" y2="16"/><line style="stroke:#181818;stroke-width:0.5;" x1="1101" x2="1101" y1="16" y2="68.5938"/><text fill="#000000" font-family="sans-serif" font-size="14" font-weight="bold" lengthAdjust="spacing" textLength="134" x="952" y="38.9951">brokerx-network</text><text fill="#000000" font-family="sans-serif" font-size="14" lengthAdjust="spacing" textLength="74" x="952" y="55.292">&#171;network&#187;</text></g><!--entity b4c4db235f3d455ace1ad4af6a8b59cf--><g id="elem_b4c4db235f3d455ace1ad4af6a8b59cf"><rect fill="#F1F1F1" height="39.2969" rx="2.5" ry="2.5" style="stroke:#181818;stroke-width:0.5;" width="167" x="821.5" y="716.86"/><polygon fill="#F1F1F1" points="971.5,721.86,971.5,735.86,983.5,735.86,983.5,727.86,977.5,721.86,971.5,721.86" style="stroke:#181818;stroke-width:0.5;"/><line style="stroke:#181818;stroke-width:0.5;" x1="977.5" x2="977.5" y1="721.86" y2="727.86"/><line style="stroke:#181818;stroke-width:0.5;" x1="983.5" x2="977.5" y1="727.86" y2="727.86"/><text fill="#000000" font-family="sans-serif" font-size="14" lengthAdjust="spacing" textLength="137" x="831.5" y="742.8551">auth_postgres_data</text></g><!--reverse link be9fa1c385ea8803a5ac106fe9e19ebd to bc56eed19b34813efff73d8b5877a611--><g id="link_be9fa1c385ea8803a5ac106fe9e19ebd_bc56eed19b34813efff73d8b5877a611"><path codeLine="37" d="M930.6427,46.1026 C883.0727,54.0826 832.24,70.19 794,106.6 C780.61,119.3475 770.4188,135.4794 762.6628,152.5578 C758.7848,161.097 755.5157,169.8729 752.76,178.5807 C751.3821,182.9346 750.1326,187.2714 748.9995,191.5532 C748.4329,193.694 747.8955,195.8211 747.3856,197.9297 C747.1307,198.984 746.8827,200.0336 746.6414,201.078 C746.5208,201.6002 746.4018,202.1211 746.2845,202.6407 C746.2258,202.9004 746.1676,203.1598 746.1098,203.4189 " fill="none" id="be9fa1c385ea8803a5ac106fe9e19ebd-backto-bc56eed19b34813efff73d8b5877a611" style="stroke:#181818;stroke-width:1.0;"/><polygon fill="#181818" points="936.56,45.11,927.0223,42.6541,931.6289,45.9372,928.3458,50.5438,936.56,45.11" style="stroke:#181818;stroke-width:1.0;"/></g><!--link 7668a94c354be9d5afdc053fdf7697a4 to b4c4db235f3d455ace1ad4af6a8b59cf--><g id="link_7668a94c354be9d5afdc053fdf7697a4_b4c4db235f3d455ace1ad4af6a8b59cf"><path codeLine="38" d="M905,622.17 C905,647.32 905,691.46 905,716.59 " fill="none" id="7668a94c354be9d5afdc053fdf7697a4-b4c4db235f3d455ace1ad4af6a8b59cf" style="stroke:#181818;stroke-width:1.0;"/><text fill="#000000" font-family="sans-serif" font-size="13" lengthAdjust="spacing" textLength="14" x="906" y="682.9269">rw</text></g><!--link 9d378215031ddb09298256d7b9a02846 to 7668a94c354be9d5afdc053fdf7697a4--><g id="link_9d378215031ddb09298256d7b9a02846_7668a94c354be9d5afdc053fdf7697a4"><path codeLine="39" d="M901.66,323.09 C902.57,399.23 904.1082,526.9204 904.6982,576.2404 " fill="none" id="9d378215031ddb09298256d7b9a02846-to-7668a94c354be9d5afdc053fdf7697a4" style="stroke:#181818;stroke-width:1.0;stroke-dasharray:7.0,7.0;"/><polygon fill="#181818" points="904.77,582.24,908.6621,573.1928,904.7102,577.2404,900.6626,573.2885,904.77,582.24" style="stroke:#181818;stroke-width:1.0;"/><text fill="#000000" font-family="sans-serif" font-size="13" lengthAdjust="spacing" textLength="23" x="904" y="486.6369">use</text></g><!--reverse link be9fa1c385ea8803a5ac106fe9e19ebd to 904adffc441f8d1da51a13633729558c--><g id="link_be9fa1c385ea8803a5ac106fe9e19ebd_904adffc441f8d1da51a13633729558c"><path codeLine="40" d="M1024,75.02 C1024,90.32 1024,104.0237 1024,125.0372 C1024,135.5439 1024,146.378 1024,157.1529 C1024,158.4997 1024,159.8456 1024,161.1899 C1024,161.862 1024,162.5337 1024,163.2049 " fill="none" id="be9fa1c385ea8803a5ac106fe9e19ebd-backto-904adffc441f8d1da51a13633729558c" style="stroke:#181818;stroke-width:1.0;"/><polygon fill="#181818" points="1024,69.02,1020,78.02,1024,74.02,1028,78.02,1024,69.02" style="stroke:#181818;stroke-width:1.0;"/></g><!--reverse link be9fa1c385ea8803a5ac106fe9e19ebd to d5f0cc340ceab8e784ce7c6d8b87071e--><g id="link_be9fa1c385ea8803a5ac106fe9e19ebd_d5f0cc340ceab8e784ce7c6d8b87071e"><path codeLine="41" d="M1117.148,53.8539 C1177.258,65.6339 1243.9,83.03 1264,106.6 C1275.3975,119.9675 1282.3363,136.4144 1286.3205,153.6155 C1286.8185,155.7656 1287.2704,157.9275 1287.679,160.0967 C1287.7812,160.639 1287.8806,161.1817 1287.9774,161.7249 C1288.0258,161.9964 1288.0736,162.2681 1288.1206,162.5398 " fill="none" id="be9fa1c385ea8803a5ac106fe9e19ebd-backto-d5f0cc340ceab8e784ce7c6d8b87071e" style="stroke:#181818;stroke-width:1.0;"/><polygon fill="#181818" points="1111.26,52.7,1119.3227,58.3562,1116.1667,53.6616,1120.8613,50.5055,1111.26,52.7" style="stroke:#181818;stroke-width:1.0;"/></g><!--SRC=[ZLFRRjf047ttLrYeJvQ0NUyTfKXMWg9KpKL0XAgsGkFTMMe5xDGu8LMKVwz3Ge6KrdcSsJbdvkoPWVcyM2soXooV1NdXC6n5KLeMDrW-j7EiLaLv4qNVygEZrw3VRuMm35Cq7gXbMY1eJHW8i9H8ZmQfmTIzSYLtrO_s4ilxpE8BpWg9wAX96TUKeVTUCQTJePK2IMdu68IsMDmMEUPLg9KHm6GiOWlS2oMuuLmHy8IXyvA5NuCeWfqUKHG4cDzdPP4lQe9UEBeQdbsSJa-ISJAwl1uU3wRNey7m8ZaVVFpm-E_7foQMgsGqcbmEJmwoR1xVi7oQZAUZmV5mCAvHs-1DrMao7aoIBzlA_SJXoSwJiyy7bEsb_uFyMyrU-YaeSLb1MQDWle9Voo3u7ZpjMdnRBAjPNRJss10EpdlBEVNQKGU20cMICHKR8RJTzzWufdHC1M7KkPIOsEXOIATI0oJMN6uztZHvDZbRm0nxuIRLe-hGZ7MOUR1LsEhUGzcTPsbtW_WvxpgeO3smabA3uPO9Nk-r4-2T9O9vvvKq2lY-rX9TzYBK2K-iPPnOX5IZqjoYih9UPws8ehWl5EibPwbordj3gFH4Eg8OLTQWy4XsbddTOKVbEkwf3Z_imrRbCtgwKJZzeo_bbhiqPi8pnqLzgKZ1SV0IwiCprWUDLzc-Q_URRxxf7yEsQpSE4_R2Lhbg1OrxqUcuJgVVQDuptzqIQyAcjNoVo4RJtqNp6m00]--></g></svg>